<mxfile host="Electron" modified="2024-03-07T11:51:03.947Z" agent="Mozilla/5.0 (Windows NT 10.0; Win64; x64) AppleWebKit/537.36 (KHTML, like Gecko) draw.io/23.1.5 Chrome/120.0.6099.109 Electron/28.1.0 Safari/537.36" etag="tK38Ee1yYAXRN7B9sbGE" version="23.1.5" type="device">
  <diagram name="PÃ¡gina-1" id="Yasrbop4ntPLogZTA3yO">
    <mxGraphModel dx="712" dy="828" grid="1" gridSize="10" guides="1" tooltips="1" connect="1" arrows="1" fold="1" page="1" pageScale="1" pageWidth="827" pageHeight="1169" math="0" shadow="0">
      <root>
        <mxCell id="0" />
        <mxCell id="1" parent="0" />
        <mxCell id="krZqPm545CxTeEuyCO3s-5" value="Alumno" style="swimlane;fontStyle=1;align=center;verticalAlign=top;childLayout=stackLayout;horizontal=1;startSize=26;horizontalStack=0;resizeParent=1;resizeParentMax=0;resizeLast=0;collapsible=1;marginBottom=0;whiteSpace=wrap;html=1;" vertex="1" parent="1">
          <mxGeometry x="220" y="170" width="360" height="230" as="geometry" />
        </mxCell>
        <mxCell id="krZqPm545CxTeEuyCO3s-6" value="-edad: int&lt;div&gt;-nombre: String&lt;/div&gt;&lt;div&gt;-apellidos: String&lt;/div&gt;" style="text;strokeColor=none;fillColor=none;align=left;verticalAlign=top;spacingLeft=4;spacingRight=4;overflow=hidden;rotatable=0;points=[[0,0.5],[1,0.5]];portConstraint=eastwest;whiteSpace=wrap;html=1;" vertex="1" parent="krZqPm545CxTeEuyCO3s-5">
          <mxGeometry y="26" width="360" height="54" as="geometry" />
        </mxCell>
        <mxCell id="krZqPm545CxTeEuyCO3s-7" value="" style="line;strokeWidth=1;fillColor=none;align=left;verticalAlign=middle;spacingTop=-1;spacingLeft=3;spacingRight=3;rotatable=0;labelPosition=right;points=[];portConstraint=eastwest;strokeColor=inherit;" vertex="1" parent="krZqPm545CxTeEuyCO3s-5">
          <mxGeometry y="80" width="360" height="8" as="geometry" />
        </mxCell>
        <mxCell id="krZqPm545CxTeEuyCO3s-8" value="+Alumno()&lt;br&gt;+setNomComplet(): String&lt;br&gt;+toString(): String&lt;br&gt;+getEdad(): int&lt;br&gt;+setEdad(int edad)&lt;br&gt;+getNom(): String&lt;br&gt;+setNom(String nombre)&lt;br&gt;+getApellidos(): String&lt;br&gt;+setApellidos(String apellidos)" style="text;strokeColor=none;fillColor=none;align=left;verticalAlign=top;spacingLeft=4;spacingRight=4;overflow=hidden;rotatable=0;points=[[0,0.5],[1,0.5]];portConstraint=eastwest;whiteSpace=wrap;html=1;" vertex="1" parent="krZqPm545CxTeEuyCO3s-5">
          <mxGeometry y="88" width="360" height="142" as="geometry" />
        </mxCell>
      </root>
    </mxGraphModel>
  </diagram>
</mxfile>
